<svg width="47" height="22" viewBox="0 0 47 22" fill="none" xmlns="http://www.w3.org/2000/svg">
<g clip-path="url(#clip0_2282_653)">
<path d="M4.59967 0.00842662C5.53764 -0.0368612 6.50462 0.109109 7.42089 0.23821C9.37716 0.513846 11.2007 1.10262 12.8757 2.17277C13.4104 2.51441 13.9034 2.99533 14.3955 3.4087C14.7572 3.28339 15.1334 3.00331 15.4719 2.82374C15.8629 2.66494 16.3148 2.34881 16.6931 2.20517C17.2899 1.9785 17.9342 1.61402 18.5298 1.41621C19.6235 1.05299 20.9589 0.567601 22.114 0.71669C22.3367 0.745432 22.6646 1.03071 22.7673 1.23428C22.9369 1.65703 23.0486 2.71136 22.9428 3.13733C22.7264 4.00946 21.2864 4.06144 20.6153 4.39323C20.2378 4.56526 19.8162 4.6809 19.4412 4.85107C18.3813 5.33211 17.3164 5.8575 16.3003 6.42762C16.3662 6.74077 16.4883 7.09764 16.5683 7.41822C16.7534 8.15226 16.8793 8.90018 16.9447 9.65468C17.6252 9.94731 18.2622 10.2527 18.9181 10.6012C19.082 10.6883 19.2742 10.8263 19.4377 10.9264L20.5119 11.5802C20.7058 11.6997 20.9122 11.8024 21.1056 11.9215C21.2932 12.037 21.4756 12.1714 21.6633 12.2872C22.4761 12.7831 23.3004 13.2594 24.1358 13.7157C24.3634 13.8378 24.6168 13.9479 24.853 14.0562C25.0657 14.1539 25.3338 14.3141 25.546 14.3955C26.2078 14.6493 26.8725 14.8934 27.5336 15.1499C27.602 14.8359 27.7499 14.5142 27.8456 14.2087C28.3182 12.7136 29.0486 11.2033 30.2006 10.1201C30.5634 9.77896 31.165 9.35454 31.6897 9.36757C31.993 9.37511 32.3666 9.50833 32.6621 9.58865C33.291 9.75964 33.9142 9.95122 34.5312 10.1612C37.6291 10.8178 37.5188 12.0921 37.4186 15.0429C38.06 14.8774 38.8259 14.516 39.4712 14.3062C39.6841 14.2371 39.9157 14.1059 40.1306 14.0255C41.4679 13.5249 42.8678 13.0517 44.2941 13.4973C45.2058 13.7791 46.2964 14.4005 46.7457 15.2706C47.0459 15.8517 47.0721 16.5226 46.8675 17.1383C46.3858 18.5871 45.142 19.3825 43.8728 20.0447C43.4589 20.2736 42.8942 20.4638 42.4573 20.6928C42.2153 20.8195 41.7878 20.9066 41.525 21.0098C41.2171 21.1309 40.8574 21.2217 40.5416 21.331C38.7106 21.7676 36.7757 21.992 34.8914 21.9998C32.9922 22.0077 31.0504 21.7804 29.181 21.4637C28.928 21.4027 28.6285 21.3788 28.3799 21.3068C27.618 21.086 26.7984 20.9528 26.0426 20.7271C25.498 20.5645 25.0079 20.3821 24.4468 20.2377C22.7804 19.8091 21.1233 19.5083 19.4081 19.3765C18.8175 19.3286 18.2676 19.2799 17.6714 19.2419C16.9889 19.1983 16.3033 19.1082 15.6115 19.0921C14.61 19.0686 13.5871 19.048 12.5852 19.0532C11.3491 19.0596 10.0958 19.0647 8.86149 19.101C7.91925 19.1286 6.94296 19.2443 5.99648 19.2647C5.48203 19.2758 4.96248 19.3458 4.4623 19.2151C3.78261 19.0374 3.15248 18.5842 2.80335 17.9668C2.57718 17.5668 2.41381 16.8995 2.2301 16.4596C2.15111 16.2421 2.01364 16.0284 1.94276 15.8105C1.3573 14.0109 0.522417 12.2901 0.0977973 10.4407C-0.0309851 9.8798 -0.0394737 8.857 0.113727 8.31036C0.337536 7.5305 0.762813 6.67373 1.51739 6.29205C3.15361 5.46442 5.33451 6.17994 6.95759 6.65944C8.11171 6.99633 9.25611 7.36614 10.3895 7.76841L12.2534 8.43563C12.6064 8.562 12.8601 8.67929 13.228 8.78563C13.2205 8.7085 13.2113 8.63152 13.2006 8.55478C13.1606 8.26046 13.027 7.40342 12.8122 7.2761C12.5686 7.13166 11.6523 7.06623 11.3557 7.02503C10.6544 6.92421 9.95544 6.80733 9.2594 6.67448C8.93884 6.61231 8.66124 6.51548 8.35704 6.44672C6.99351 6.14186 5.60529 5.72334 4.39818 5.00542C3.74954 4.61966 2.66213 3.90281 2.80905 3.0279C2.90543 2.48462 2.88739 1.85065 3.04849 1.3254C3.28765 0.545633 3.81246 0.100779 4.59967 0.00842662ZM45.8822 17.0273C46.0175 16.6537 46.1201 16.2377 45.9455 15.8614C45.8875 15.7366 45.6571 15.3262 45.5561 15.3155C45.2883 15.3495 44.9087 15.7962 44.6924 15.9476C44.0322 16.4098 43.3719 16.9065 42.6618 17.2829C42.2799 17.4853 41.7276 17.766 41.3379 17.9378C40.1838 18.4466 38.9424 18.8128 37.7029 19.03C37.3322 19.0802 36.9277 19.2016 36.5587 19.2404C35.076 19.3964 33.4541 19.444 31.9717 19.2506C30.773 19.0943 29.4666 18.8258 28.2928 18.5362C27.6986 18.3895 27.0883 18.132 26.4953 17.9692C26.2985 17.9089 25.9776 17.7562 25.7637 17.677L22.8289 16.5781C22.5371 16.468 22.2437 16.3323 21.9535 16.2302L18.7125 15.0978C18.4443 15.0036 18.1815 14.8826 17.9134 14.7917C15.2226 13.8713 12.5011 13.0446 9.75377 12.3131C9.39644 12.2178 9.04509 12.0968 8.68622 12.0086C7.81285 11.7938 6.92778 11.6287 6.0542 11.4164C5.8633 11.37 5.67358 11.3212 5.48069 11.2835C4.6784 11.1341 3.87291 11.0024 3.06486 10.8887C2.70611 10.8359 2.3506 10.7763 1.9918 10.7255C1.72184 10.6872 1.44886 10.6849 1.18281 10.653C1.25533 11.5438 2.00554 13.038 2.29425 13.9169C2.56739 14.7485 2.89953 15.573 3.22507 16.3953C3.54903 17.2136 3.744 18.186 4.84265 18.2591C5.49268 18.3024 6.24371 18.22 6.90599 18.1945C8.36039 18.1295 9.81581 18.0893 11.2716 18.0738C15.2255 18.0377 19.047 18.1478 22.9478 18.862C24.0248 19.0592 25.1384 19.4036 26.1925 19.7133C26.4769 19.7968 26.757 19.8939 27.044 19.9689C27.7387 20.1502 28.446 20.2841 29.1503 20.4206C29.5381 20.4958 29.9229 20.5975 30.3126 20.6603C32.5083 21.0045 34.7362 21.0911 36.9519 20.9184C39.2693 20.7194 41.59 20.1326 43.6488 19.0231C44.4423 18.5955 45.554 17.9284 45.8822 17.0273ZM0.962749 9.65758C3.11776 9.81779 5.25639 10.1538 7.35756 10.6623C7.66428 10.7345 7.96486 10.8322 8.27107 10.9071C9.45557 11.1968 10.6341 11.4934 11.8052 11.8353C12.2457 11.9502 12.652 12.0572 13.0802 12.2141C13.1986 11.4527 13.3087 10.6106 13.2808 9.83761C12.8845 9.71355 12.506 9.59283 12.1136 9.45454C11.8596 9.36503 11.537 9.20944 11.2941 9.13483C10.2219 8.80536 9.19652 8.39247 8.12379 8.06868C7.86091 7.98932 7.5598 7.85937 7.288 7.77049C6.74988 7.5945 6.15594 7.46294 5.62188 7.30755C4.54793 6.9951 3.86594 6.85707 2.74489 6.92523C2.46903 6.98606 2.20771 7.03454 1.96314 7.18625C1.11118 7.71478 0.957665 8.73437 0.962749 9.65758ZM28.4681 15.3866C28.6899 15.4084 29.0254 15.4861 29.2496 15.5405C29.8994 15.698 30.5632 15.7737 31.23 15.8161C31.6122 14.5493 32.0292 13.3868 32.0211 12.0398C32.0189 11.712 32.0273 11.355 31.9611 11.0358C31.8945 10.7147 32.0031 10.3412 31.589 10.3505C30.4366 10.8873 29.4285 12.5887 29.0184 13.7714C28.8393 14.2875 28.6314 14.8646 28.4681 15.3866ZM15.798 5.40508C15.8179 5.43569 15.8446 5.49573 15.8865 5.49166C16.191 5.45888 16.45 5.20177 16.7147 5.05835C17.1097 4.8442 17.539 4.67111 17.9337 4.46023C18.395 4.21378 18.8512 4.02406 19.3372 3.83252C19.5988 3.70638 19.8696 3.60619 20.1368 3.49824C20.7249 3.26066 21.3826 3.15147 21.9508 2.88622C22.0809 2.82546 21.9535 1.8772 21.9382 1.7087C21.7688 1.71042 21.6134 1.70918 21.4449 1.73015C19.7228 1.84308 17.9282 2.76569 16.3768 3.47396C15.953 3.66743 15.5257 3.97241 15.0989 4.172C15.3012 4.59389 15.5725 4.9369 15.798 5.40508ZM30.8456 16.7596C29.4299 16.6833 27.6293 16.236 26.2836 15.7519C23.303 14.6798 20.7076 12.7272 17.9547 11.2049C17.726 11.0785 17.201 10.8195 16.9642 10.7173C16.9061 11.7857 16.8504 12.2801 16.6746 13.3424C16.9289 13.3852 17.289 13.5627 17.5445 13.6536L19.5698 14.3547C19.9833 14.4987 20.404 14.6274 20.8177 14.7706C21.061 14.8548 21.2954 14.968 21.5392 15.0573L24.6734 16.204C24.9516 16.3068 25.2096 16.4384 25.4829 16.5425C25.9831 16.7331 26.4982 16.8882 26.9946 17.0891C27.6084 17.3377 28.2556 17.4628 28.8897 17.6362C29.3716 17.768 29.8102 17.8817 30.2975 17.9904L30.3699 17.8121C30.5538 17.3862 30.7159 17.2602 30.8456 16.7596ZM4.19807 3.63102C4.2854 3.89768 5.30754 4.37877 5.56064 4.51753C5.85323 4.67795 6.28828 4.79534 6.60335 4.917C7.6649 5.32754 8.75931 5.54708 9.87137 5.76659C10.2922 5.84967 10.7096 5.96212 11.139 6.00293C11.4698 6.03436 11.8585 6.13178 12.1861 6.1361C12.1382 6.02747 12.039 5.99041 11.9614 5.91164C11.5146 5.46959 10.8831 5.1832 10.3128 4.93801C9.94685 4.78069 9.48938 4.68044 9.11029 4.55677C7.89848 4.16141 6.63217 3.94686 5.37202 3.77679C5.03125 3.7308 4.53071 3.63975 4.19807 3.63102ZM42.7942 14.3731C41.924 14.4046 41.0756 14.7099 40.2898 15.0592C39.9486 15.2108 39.5606 15.315 39.2148 15.4602C38.6094 15.7138 37.9794 15.9408 37.3375 16.0882C37.2668 16.4024 37.2308 16.7357 37.1761 17.0559C37.1126 17.4289 37.0219 17.7988 36.9538 18.1683C37.1915 18.0948 37.4694 18.0736 37.7157 18.0253C37.9787 17.9738 38.2386 17.9155 38.5015 17.8639C39.4057 17.5377 40.3241 17.3661 41.1718 16.8949C41.3593 16.7906 41.6015 16.7217 41.7926 16.6154C42.7441 16.1041 43.8805 15.4153 44.6797 14.6887C44.0039 14.3964 43.5141 14.3408 42.7942 14.3731ZM32.8894 10.6715C33.0527 11.9208 32.9791 13.1899 32.6724 14.4114C32.5937 14.7163 32.4786 15.0264 32.3897 15.3252C32.136 16.1793 31.8544 17.0179 31.4398 17.8067C31.3928 17.896 31.3389 18.0563 31.3003 18.1565C31.6616 18.1797 32.0288 18.236 32.3925 18.2667C33.1956 18.3385 34.002 18.3619 34.8077 18.3369C35.1734 18.3193 35.5455 18.295 35.91 18.2805C36.052 17.7659 36.1683 17.2445 36.2589 16.7183C36.4275 15.7071 36.7423 12.9234 36.2561 12.066C36.1685 11.9114 36.0414 11.7631 35.8875 11.6727C35.3448 11.3541 34.3538 11.1399 33.7217 10.9494C33.4524 10.8682 33.1889 10.754 32.9196 10.6788C32.9098 10.676 32.8994 10.6739 32.8894 10.6715ZM4.62276 1.04818C3.82836 1.13111 3.90087 2.03228 3.81289 2.64352C4.95358 2.60408 6.25941 2.85411 7.36682 3.10542C7.92225 3.23146 8.64284 3.3411 9.1747 3.52299C10.1017 3.84002 11.0045 4.11238 11.8514 4.61654C12.3313 4.90216 12.7012 5.18758 13.0621 5.64128C13.884 6.76243 14.2031 8.11338 14.2428 9.491C14.266 10.4934 14.1903 11.4956 14.017 12.483C14.3865 12.6007 14.8166 12.7275 15.1742 12.8653C15.3635 12.9334 15.5547 12.9962 15.7475 13.0535C15.8276 12.3655 15.9717 11.6413 15.9916 10.9512C16.0527 8.83033 15.5878 6.41957 14.2488 4.73644C12.4452 2.46929 9.5447 1.45605 6.76509 1.15693C6.28306 1.10614 5.06866 1.00748 4.62276 1.04818Z" fill="#101010"/>
</g>
<defs>
<clipPath id="clip0_2282_653">
<rect width="47" height="22" fill="white"/>
</clipPath>
</defs>
</svg>
